<?xml version="1.0" standalone="no"?>
<!DOCTYPE svg PUBLIC "-//W3C//DTD SVG 20010904//EN"
 "http://www.w3.org/TR/2001/REC-SVG-20010904/DTD/svg10.dtd">
<svg version="1.0" xmlns="http://www.w3.org/2000/svg"
 width="400.000000pt" height="400.000000pt" viewBox="0 0 400.000000 400.000000"
 preserveAspectRatio="xMidYMid meet">

<g transform="translate(0.000000,400.000000) scale(0.100000,-0.100000)"
fill="#000000" stroke="none">
<path d="M0 2000 l0 -2000 2000 0 2000 0 0 2000 0 2000 -2000 0 -2000 0 0
-2000z m2850 80 l0 -260 -45 0 -45 0 0 260 0 260 45 0 45 0 0 -260z m-1899
110 c20 -6 44 -19 54 -30 18 -20 18 -21 -8 -47 -23 -24 -29 -25 -52 -15 -75
34 -155 -14 -155 -93 0 -82 84 -129 159 -90 27 13 30 13 56 -15 32 -34 27 -45
-29 -71 -68 -31 -166 -18 -218 28 -75 66 -75 230 0 296 45 41 125 56 193 37z
m362 -14 c44 -22 47 -22 47 -5 0 16 8 19 45 19 l45 0 0 -185 0 -185 -45 0
c-42 0 -45 2 -45 26 l0 26 -30 -26 c-99 -83 -255 -15 -276 121 -24 162 121
280 259 209z m847 14 c20 -5 44 -16 55 -24 18 -13 18 -14 -4 -45 -22 -30 -23
-30 -51 -16 -37 19 -104 19 -120 0 -17 -20 -6 -43 22 -49 129 -25 138 -28 163
-57 49 -59 24 -144 -51 -175 -69 -29 -194 -8 -232 39 -12 14 -11 21 7 45 l21
29 46 -23 c74 -38 152 -26 142 21 -4 22 -28 31 -102 41 -66 8 -116 55 -116
107 0 86 107 138 220 107z m401 -20 c27 -19 27 -19 32 0 4 16 14 20 46 20 l41
0 0 -185 0 -185 -39 0 c-31 0 -40 4 -44 21 l-6 21 -26 -20 c-81 -64 -220 -23
-261 75 -31 74 -10 188 44 236 53 49 160 57 213 17z m-959 -106 c3 -118 4
-127 27 -145 45 -36 120 -14 140 42 6 18 11 76 11 130 l0 99 45 0 45 0 0 -185
0 -185 -41 0 c-32 0 -42 4 -46 20 -6 24 -11 25 -35 3 -12 -11 -41 -19 -82 -21
-56 -4 -65 -2 -95 24 -52 43 -61 77 -61 219 l0 125 44 0 44 0 4 -126z m1448 0
c23 -69 44 -123 47 -120 3 3 27 58 53 123 l48 118 51 3 c28 2 51 2 51 0 0 -2
-49 -118 -109 -258 l-110 -255 -50 -3 c-28 -2 -51 -1 -51 2 0 2 14 34 30 71
17 37 30 75 30 85 0 9 -22 71 -49 136 -27 66 -59 143 -70 172 l-21 52 54 0 54
0 42 -126z"/>
<path d="M1177 2085 c-44 -45 -44 -115 1 -160 34 -35 109 -36 140 -2 45 48 45
116 1 163 -33 35 -106 34 -142 -1z"/>
<path d="M2413 2086 c-25 -21 -28 -31 -28 -81 0 -50 3 -60 28 -81 20 -17 40
-24 72 -24 32 0 52 7 72 24 25 21 28 31 28 81 0 50 -3 60 -28 81 -20 17 -40
24 -72 24 -32 0 -52 -7 -72 -24z"/>
</g>
</svg>
