<?xml version="1.0" standalone="no"?>
<!DOCTYPE svg PUBLIC "-//W3C//DTD SVG 20010904//EN"
 "http://www.w3.org/TR/2001/REC-SVG-20010904/DTD/svg10.dtd">
<svg version="1.0" xmlns="http://www.w3.org/2000/svg"
 width="829.000000pt" height="829.000000pt" viewBox="0 0 829.000000 829.000000"
 preserveAspectRatio="xMidYMid meet">

<g transform="translate(0.000000,829.000000) scale(0.100000,-0.100000)"
fill="#000000" stroke="none">
<path d="M3990 7070 c-1054 -60 -1988 -674 -2455 -1615 -212 -426 -306 -829
-307 -1305 0 -468 95 -876 302 -1295 135 -274 297 -505 506 -724 478 -499
1090 -804 1780 -886 169 -21 498 -20 668 0 672 80 1258 364 1732 839 251 252
423 494 570 801 276 578 356 1224 228 1854 -195 970 -882 1779 -1821 2145
-246 96 -569 167 -823 181 -217 12 -248 12 -380 5z m194 -365 c33 -69 62 -125
66 -125 4 0 33 56 66 125 l59 124 35 0 c31 0 32 -1 13 -9 -21 -9 -23 -16 -23
-88 0 -127 10 -200 29 -205 9 -3 -9 -5 -39 -5 -30 0 -47 2 -37 5 15 4 17 19
17 126 l0 122 -36 -65 c-19 -36 -48 -94 -65 -129 -17 -35 -34 -60 -38 -55 -4
5 -32 63 -62 129 l-54 119 -7 -44 c-3 -25 -7 -77 -7 -117 -1 -59 2 -74 17 -82
13 -8 7 -10 -28 -10 -34 0 -41 2 -28 9 19 11 25 45 33 183 6 95 6 97 -17 106
-21 9 -20 10 12 10 l35 0 59 -124z m-310 100 c-9 -22 26 -247 42 -272 13 -21
13 -23 -8 -23 -13 0 -34 -3 -48 -6 -23 -6 -24 -6 -6 8 16 13 17 23 11 76 -4
34 -10 64 -15 67 -4 2 -45 -2 -91 -10 -46 -8 -86 -15 -88 -15 -5 0 7 -104 15
-124 3 -9 16 -17 28 -17 16 -1 14 -3 -9 -9 -16 -4 -41 -8 -54 -9 -19 -1 -21 2
-12 13 17 20 -23 264 -46 281 -13 10 -8 13 32 18 27 4 51 5 53 2 3 -3 -3 -5
-13 -5 -16 0 -17 -7 -12 -61 3 -33 8 -63 11 -67 9 -8 167 15 179 27 5 5 4 32
-3 65 -9 47 -15 56 -33 57 -20 1 -20 2 3 9 43 14 70 12 64 -5z m835 -31 c2 -2
-5 -4 -17 -4 -11 0 -23 -4 -26 -9 -4 -5 -15 -67 -26 -138 -19 -121 -19 -129
-2 -142 15 -12 15 -13 -8 -7 -14 3 -38 6 -55 7 -16 1 -22 3 -13 6 22 6 27 23
48 163 12 81 14 119 7 128 -9 11 -2 13 39 7 27 -4 51 -9 53 -11z m-1261 -65
c3 -19 1 -22 -9 -11 -7 6 -27 12 -43 12 l-31 1 30 14 c39 17 49 14 53 -16z
m-106 -10 c-16 -6 -22 -14 -18 -26 13 -42 58 -191 67 -220 8 -26 16 -33 37
-34 25 0 25 -1 -8 -13 -19 -7 -48 -16 -65 -20 -24 -5 -26 -4 -12 4 9 6 17 19
17 29 0 33 -71 256 -83 260 -7 2 4 10 23 17 40 14 77 17 42 3z m1611 -1 c-102
-23 -151 -168 -89 -263 9 -13 25 -26 36 -30 12 -4 19 -9 17 -12 -10 -9 -67 28
-90 59 -33 43 -41 89 -27 135 23 72 90 123 160 122 l35 -1 -42 -10z m119 -29
c36 -26 62 -97 53 -146 -14 -81 -89 -144 -166 -142 l-34 1 39 8 c121 23 166
220 66 288 -28 20 -30 23 -10 17 14 -4 37 -16 52 -26z m-1859 -11 c-12 -6 -27
-22 -32 -37 -9 -25 -9 -25 -10 9 -1 33 1 35 32 37 29 1 30 1 10 -9z m-194
-100 l24 -27 -32 11 c-28 11 -38 9 -96 -20 -36 -17 -65 -35 -65 -39 0 -5 32
-21 70 -37 79 -34 79 -33 54 -132 -9 -36 -14 -67 -11 -70 11 -11 159 79 170
104 l11 24 8 -28 c4 -16 4 -31 0 -35 -19 -17 -222 -120 -222 -112 0 4 11 49
24 98 13 50 24 90 23 91 -134 54 -187 77 -187 80 0 1 39 22 86 46 47 24 93 50
102 59 9 9 17 16 17 15 0 0 11 -13 24 -28z m2786 -290 c6 -6 3 -8 -9 -6 -15 2
-36 -20 -88 -92 -75 -105 -87 -132 -67 -157 8 -9 -5 -4 -28 11 l-42 28 23 21
c29 27 146 199 146 215 0 13 -128 102 -146 102 -6 0 -44 -50 -85 -111 -66
-101 -72 -113 -60 -132 l14 -21 -29 18 c-71 46 -71 46 -47 46 29 0 167 202
161 235 -4 17 21 4 121 -64 69 -46 131 -88 136 -93z m-3151 95 c-3 -11 26 -61
72 -126 67 -96 80 -108 101 -104 27 5 26 4 -31 -37 -35 -26 -38 -27 -32 -8 8
24 0 38 -88 160 -46 65 -64 82 -79 78 -10 -2 -16 -2 -13 1 5 5 69 51 73 53 0
0 -1 -8 -3 -17z m1806 -98 c809 -122 1477 -688 1726 -1465 69 -216 98 -403 98
-645 0 -211 -16 -343 -64 -535 -188 -747 -791 -1352 -1535 -1539 -380 -95
-751 -90 -1129 15 -636 178 -1180 684 -1409 1309 -96 264 -131 462 -131 750 0
194 13 313 54 490 98 424 348 834 683 1121 355 304 763 473 1247 518 86 8 355
-4 460 -19z m-2007 -49 c-4 -19 13 -42 88 -120 54 -57 98 -95 106 -92 19 8 17
3 -21 -33 -28 -27 -34 -30 -30 -14 8 30 -172 226 -195 213 -9 -5 -40 -33 -70
-64 l-54 -55 41 -48 c76 -90 149 -156 166 -150 23 9 20 5 -21 -34 -22 -21 -34
-27 -30 -16 5 13 -11 38 -59 90 -100 108 -124 129 -142 123 -10 -3 37 46 103
109 66 63 121 114 121 115 1 0 -1 -11 -3 -24z m3570 -152 c12 -4 2 -33 -50
-142 -40 -85 -63 -145 -60 -159 2 -13 3 -23 3 -23 -1 0 -18 16 -37 36 -18 19
-27 32 -18 29 12 -5 22 6 38 39 11 25 21 49 21 54 0 4 -16 24 -35 42 l-36 35
-47 -25 c-30 -16 -47 -31 -46 -43 2 -22 3 -22 -30 12 -23 24 -25 29 -9 25 17
-5 256 95 278 117 11 11 9 11 28 3z m-3912 -216 c-16 -5 -41 -24 -56 -44 l-28
-37 44 -38 c24 -21 49 -39 56 -39 19 0 56 59 50 82 -5 19 -5 19 21 -3 15 -13
31 -27 35 -30 5 -4 -2 -4 -16 -2 -18 4 -31 -3 -52 -28 l-27 -33 38 -33 c61
-51 72 -52 117 -3 33 35 38 46 33 72 -5 26 -4 29 9 18 23 -19 18 -37 -22 -88
-68 -85 -105 -125 -99 -105 7 22 -27 57 -137 142 -44 35 -73 51 -84 47 -12 -5
-13 -3 -6 6 6 7 33 43 62 80 47 61 54 66 72 55 18 -11 18 -12 -10 -19z m4170
-75 c29 -37 64 -80 78 -96 24 -26 24 -27 5 -42 -27 -20 -36 -19 -22 4 10 16 7
26 -15 60 -15 23 -30 41 -33 41 -11 0 -205 -153 -218 -172 -13 -18 -15 -17
-47 24 -19 25 -24 35 -11 24 21 -19 22 -18 59 6 21 14 73 53 116 87 l78 62
-21 29 c-25 35 -56 54 -76 46 -24 -9 -15 3 14 18 25 13 28 13 34 -4 4 -11 31
-50 59 -87z m-4248 -307 c60 -35 105 -66 100 -69 -4 -2 -81 -17 -170 -33 -90
-15 -163 -30 -163 -34 0 -6 104 -69 169 -102 33 -17 36 -17 55 0 18 15 17 13
-4 -23 -30 -52 -40 -63 -33 -37 4 17 -7 29 -64 66 -123 79 -162 97 -186 84
-21 -11 -21 -10 -6 12 22 33 29 36 153 55 60 10 128 23 150 29 l41 12 -80 47
c-93 55 -120 64 -141 46 -10 -8 -8 0 6 24 l22 36 21 -24 c12 -14 71 -54 130
-89z m4452 1 c44 -81 45 -116 4 -151 -37 -31 -54 -32 -96 -6 -41 25 -42 32 -3
17 39 -15 97 11 106 48 8 32 -3 74 -21 81 -15 6 -214 -106 -236 -132 -6 -8 -8
-22 -5 -31 10 -25 -6 -6 -32 38 l-22 36 23 -3 c33 -6 231 115 235 144 2 12 5
22 7 22 2 0 20 -29 40 -63z m121 -323 c19 -9 43 -29 54 -44 26 -37 26 -50 -1
-21 -44 47 -91 52 -165 17 -40 -18 -58 -35 -84 -77 l-33 -54 -19 55 c-10 30
-17 59 -14 65 2 5 19 19 37 29 l33 20 -22 -28 c-15 -20 -20 -36 -16 -55 10
-42 20 -44 34 -9 41 103 114 141 196 102z m-4652 -104 c-4 -8 -9 -23 -12 -33
-3 -14 -7 -15 -12 -6 -5 7 -33 14 -62 17 l-54 4 -17 -44 c-9 -24 -17 -48 -17
-54 0 -6 18 -25 40 -43 32 -26 44 -30 55 -21 12 10 12 7 2 -20 -9 -24 -14 -28
-22 -18 -9 12 -90 88 -193 181 -23 21 -42 42 -42 47 0 5 76 8 170 7 147 -2
169 -4 164 -17z m4721 -109 c-35 -68 -106 -86 -189 -48 -31 14 -56 22 -56 17
0 -27 27 -61 54 -70 29 -8 29 -9 -13 -7 -42 2 -44 3 -63 51 -10 27 -16 51 -14
54 3 2 23 -3 46 -12 114 -45 235 10 242 111 1 15 3 7 5 -19 3 -30 -2 -58 -12
-77z m43 -288 c-92 -113 -141 -183 -135 -190 8 -7 174 25 200 38 9 5 17 17 17
26 0 26 7 11 14 -31 6 -34 5 -38 -6 -28 -16 12 -82 5 -211 -24 -37 -9 -72 -14
-78 -12 -6 2 36 64 93 138 75 96 100 136 89 138 -9 1 -61 -8 -116 -20 -89 -21
-100 -26 -106 -48 -4 -14 -7 -20 -8 -14 -1 6 -4 25 -7 41 -6 28 -4 30 23 26
27 -4 235 31 254 43 5 3 9 15 10 27 1 17 3 15 11 -10 10 -31 8 -36 -44 -100z
m-5045 68 c123 -24 157 -26 157 -9 0 6 2 9 5 6 3 -3 3 -24 -1 -47 -5 -34 -9
-38 -18 -26 -13 18 -264 71 -276 58 -12 -14 -40 -167 -32 -174 10 -10 208 -49
248 -49 18 0 35 6 38 13 3 6 3 -6 -1 -28 -7 -49 -9 -51 -27 -36 -8 6 -69 23
-137 36 -97 19 -126 21 -138 12 -12 -10 -13 -7 -8 18 3 17 16 85 29 152 20
107 25 120 38 108 8 -7 64 -23 123 -34z m5054 -703 c33 -30 31 -80 -3 -107
-54 -42 -124 -10 -124 55 0 66 78 98 127 52z m-5057 -8 c44 -44 9 -130 -52
-130 -37 0 -78 40 -78 76 0 63 85 99 130 54z m181 -464 c7 -23 6 -26 -5 -17
-9 8 -33 6 -91 -10 -142 -37 -182 -69 -171 -137 13 -85 70 -100 213 -57 63 20
86 31 92 47 7 20 8 19 14 -8 3 -16 9 -38 13 -49 7 -20 7 -20 -9 0 -15 20 -16
20 -105 -4 -168 -43 -216 -25 -239 91 -14 70 33 109 178 149 41 11 78 28 83
37 8 14 10 14 14 2 2 -8 8 -28 13 -44z m4644 38 c-36 -19 -45 -31 -45 -66 0
-50 64 -72 102 -34 7 6 29 24 49 39 66 50 138 27 154 -48 l6 -30 -15 32 c-24
53 -95 54 -143 1 -86 -96 -206 -21 -148 92 12 22 23 30 43 30 l27 0 -30 -16z
m243 -181 c-11 -23 -20 -28 -53 -30 l-40 -3 39 14 c37 14 56 30 56 50 0 5 3 7
6 3 3 -3 0 -18 -8 -34z m-4779 -254 c-30 -59 -100 -251 -94 -257 7 -7 84 29
148 70 39 25 46 34 41 52 -9 30 0 18 25 -32 21 -42 21 -42 1 -30 -17 11 -35 5
-146 -50 -69 -35 -128 -61 -130 -59 -2 2 24 72 57 156 34 83 59 154 56 157 -6
6 -138 -59 -180 -88 -21 -15 -26 -25 -21 -41 9 -31 0 -19 -25 31 -21 41 -21
42 -2 30 17 -10 36 -4 135 45 64 31 117 62 117 69 1 7 1 22 0 33 -1 14 5 9 18
-15 19 -34 19 -36 0 -71z m4612 74 c66 -4 92 -3 104 7 14 12 14 8 -1 -23 -13
-27 -22 -36 -33 -31 -9 3 -37 9 -63 11 l-48 6 -21 -49 -21 -49 43 -38 c32 -28
45 -35 55 -26 9 8 8 -1 -4 -30 -14 -34 -18 -37 -20 -18 -2 12 -53 72 -113 133
-60 61 -109 115 -109 119 0 4 32 5 72 1 39 -3 111 -9 159 -13z m-267 -278 c10
-8 22 -31 25 -52 l7 -38 74 3 c40 2 84 8 97 13 21 8 22 7 13 -10 -13 -26 -62
-41 -130 -41 -44 0 -61 -4 -75 -20 -22 -24 -14 -35 49 -69 30 -15 43 -18 53
-9 20 16 16 2 -12 -42 -29 -46 -32 -48 -31 -19 1 16 -25 37 -108 91 -92 60
-112 69 -128 59 -10 -6 -18 -9 -18 -7 0 15 74 128 92 141 28 19 67 19 92 0z
m-4120 -129 c27 -35 27 -38 7 -31 -35 11 -245 -142 -234 -171 10 -26 -4 -14
-30 25 -21 32 -23 38 -8 34 17 -4 115 57 198 124 30 24 40 39 36 51 -7 20 -6
19 31 -32z m3895 -100 l22 -23 -25 4 c-20 4 -33 -2 -56 -27 -17 -18 -29 -38
-27 -44 3 -10 105 -99 175 -154 29 -22 37 -24 53 -13 18 11 19 10 10 -6 -19
-31 -74 -91 -61 -65 10 21 8 27 -26 59 -81 76 -174 145 -189 139 -23 -8 -55
-68 -49 -91 4 -17 2 -16 -15 5 -11 14 -16 27 -10 28 13 5 169 191 169 203 0
14 4 11 29 -15z m-3768 -68 c15 -21 16 -26 5 -22 -11 4 -29 -22 -71 -105 -33
-66 -50 -111 -43 -111 7 0 62 16 121 36 93 31 108 39 104 55 -7 26 -3 24 25
-13 l25 -33 -41 0 c-33 -1 -209 -50 -292 -82 -11 -4 10 45 60 141 66 129 75
150 64 169 -10 20 -10 21 6 8 9 -8 26 -27 37 -43z m327 -328 c54 -47 61 -60
38 -79 -11 -9 -12 -7 -9 12 4 18 -6 33 -38 62 l-43 38 -38 -44 c-21 -24 -38
-49 -38 -56 0 -6 14 -23 32 -37 24 -18 36 -22 45 -14 24 20 13 -8 -13 -33 -15
-14 -23 -17 -19 -8 4 10 -6 28 -27 48 l-33 32 -42 -45 c-24 -25 -43 -51 -43
-59 0 -8 19 -31 41 -52 36 -33 46 -36 78 -31 l36 6 -29 -20 -30 -19 -70 61
c-39 34 -80 70 -91 81 -20 19 -20 19 1 9 27 -14 34 -9 129 103 50 59 75 95 72
107 -6 21 -1 18 91 -62z m3192 0 c163 -98 170 -101 194 -88 12 6 17 7 11 2 -5
-5 -28 -25 -50 -44 -21 -19 -33 -27 -26 -17 16 20 7 29 -57 64 l-32 18 -37
-37 -36 -36 20 -49 c14 -33 25 -47 36 -45 24 4 21 -1 -12 -26 -25 -18 -28 -19
-24 -3 2 9 -18 78 -46 153 -46 123 -59 168 -47 168 2 0 50 -27 106 -60z
m-2966 -165 c61 -39 86 -68 86 -103 0 -34 -43 -72 -81 -72 l-32 0 5 -85 c3
-47 11 -92 18 -100 19 -23 -4 -18 -26 6 -13 14 -19 39 -22 87 -4 91 -9 110
-31 122 -16 8 -24 2 -52 -41 -29 -45 -31 -54 -19 -72 13 -21 13 -21 -16 -3
-71 46 -71 46 -46 46 17 0 38 24 93 107 42 65 68 115 65 125 -6 24 -5 23 58
-17z m2725 9 c28 -36 27 -77 -5 -111 -20 -22 -23 -23 -15 -6 37 75 -37 151
-110 113 -10 -6 -19 -15 -19 -21 0 -6 32 -60 71 -119 48 -74 77 -110 92 -112
18 -3 15 -7 -20 -30 -39 -26 -40 -26 -36 -5 3 14 -14 50 -44 97 -80 126 -94
142 -114 137 -32 -8 -22 2 43 43 76 50 126 54 157 14z m-2419 -181 c-57 -10
-64 -59 -20 -136 47 -83 37 -135 -29 -158 -26 -9 -38 -7 -77 11 -51 25 -59 38
-49 78 l8 27 7 -32 c19 -84 104 -107 131 -36 8 22 4 39 -26 99 -22 44 -34 81
-31 92 12 36 45 62 79 61 27 -2 28 -2 7 -6z m71 -22 c20 -16 22 -22 12 -42
l-12 -24 0 23 c-1 12 -10 31 -21 42 -25 25 -10 26 21 1z m1839 -5 c0 -2 3 -12
7 -21 5 -15 3 -16 -17 -5 -18 10 -30 9 -66 -5 -24 -9 -44 -20 -44 -25 0 -19
44 -120 52 -120 19 0 88 41 88 53 1 16 15 -10 25 -43 7 -23 6 -24 -7 -6 -14
18 -16 18 -61 1 -26 -10 -47 -19 -47 -21 0 -18 53 -116 65 -120 12 -5 5 -12
-25 -25 -52 -23 -53 -23 -38 0 10 17 4 39 -36 141 -27 67 -55 124 -63 127 -9
4 17 19 64 39 73 31 103 40 103 30z m-1632 -73 c12 -3 25 -9 28 -14 3 -5 -2
-6 -10 -3 -9 4 -20 -4 -29 -23 -28 -55 -79 -224 -74 -244 4 -15 2 -19 -10 -15
-8 3 -26 9 -39 12 -23 6 -23 7 -5 23 25 21 95 224 88 257 -4 20 -1 24 12 18 9
-3 26 -9 39 -11z m224 -56 c46 -7 65 -14 59 -21 -13 -16 -53 -246 -48 -273 4
-23 3 -24 -42 -17 -51 7 -66 14 -32 14 13 0 25 9 31 23 15 36 51 250 42 258
-4 3 -24 9 -44 12 -28 4 -43 1 -62 -14 l-24 -19 11 30 c8 21 16 29 27 24 8 -3
45 -11 82 -17z m1081 -15 c36 -22 66 -74 73 -126 6 -49 -26 -121 -66 -145
l-25 -15 24 26 c76 85 1 266 -112 269 -36 1 -39 2 -17 9 32 11 87 3 123 -18z
m-175 -13 c-32 -24 -52 -86 -43 -132 10 -45 52 -114 78 -129 12 -6 38 -15 57
-19 29 -7 25 -8 -21 -5 -38 1 -66 9 -86 24 -85 60 -83 206 2 262 39 26 48 25
13 -1z m-757 3 c34 -7 36 -9 27 -32 -10 -24 -11 -24 -18 -5 -4 12 -23 25 -46
32 -43 13 -20 16 37 5z m160 -22 c21 0 27 -4 23 -15 -7 -17 52 -149 63 -142 5
3 24 35 43 71 30 57 33 68 20 76 -11 7 -3 10 30 10 l45 0 -27 -23 c-15 -12
-45 -51 -67 -86 -37 -57 -41 -71 -41 -127 0 -40 4 -64 13 -67 6 -3 -13 -5 -43
-6 -43 0 -50 2 -32 9 19 8 22 17 22 68 0 47 -7 73 -39 139 -22 45 -48 86 -58
93 -17 11 -17 11 0 6 10 -3 32 -6 48 -6z"/>
<path d="M3181 4264 c-56 -17 -59 -21 -27 -33 26 -10 26 -12 26 -112 0 -92 -2
-101 -20 -106 -43 -11 -17 -23 51 -23 44 0 68 4 64 10 -3 6 -13 10 -21 10 -11
0 -14 24 -14 135 0 74 -3 135 -7 134 -5 -1 -28 -7 -52 -15z"/>
<path d="M3386 4265 c-39 -21 -55 -44 -56 -81 0 -62 63 -105 110 -74 13 8 13
10 -2 10 -41 0 -66 102 -33 130 23 19 53 -13 61 -65 10 -67 -18 -139 -69 -176
-22 -16 -46 -29 -54 -29 -8 0 -12 -4 -8 -9 15 -25 121 31 162 85 29 39 41 113
24 156 -20 51 -88 78 -135 53z"/>
<path d="M5065 4169 c-42 -61 -74 -113 -72 -115 4 -4 27 -7 100 -13 28 -2 22
-49 -8 -61 -41 -15 -29 -20 48 -20 63 1 70 2 54 14 -10 8 -19 27 -20 42 -2 23
3 30 21 32 12 2 22 7 22 12 0 5 -10 10 -22 12 -20 3 -23 9 -23 45 0 48 -6 57
-34 48 -15 -4 -21 -16 -23 -48 -3 -41 -4 -42 -40 -45 -21 -2 -38 -1 -38 2 0 4
29 47 65 96 36 49 65 94 65 100 0 27 -25 0 -95 -101z"/>
<path d="M4855 4251 c-112 -52 -159 -189 -89 -264 33 -36 100 -38 139 -4 33
28 44 87 22 121 -21 32 -73 44 -95 22 -15 -15 -15 -16 0 -16 35 0 60 -68 42
-114 -10 -27 -53 -20 -65 12 -16 39 -13 125 5 160 17 34 71 82 91 82 8 0 17 5
20 10 10 16 -26 11 -70 -9z"/>
<path d="M5925 6013 c-27 -14 -52 -27 -54 -29 -5 -5 50 -64 59 -64 7 0 19 23
46 88 17 38 14 39 -51 5z"/>
<path d="M1670 5019 c0 -9 78 -79 88 -79 10 0 32 44 32 65 0 9 -18 14 -60 17
-33 1 -60 0 -60 -3z"/>
<path d="M6636 3994 c-34 -34 -9 -94 39 -94 32 0 55 25 55 60 0 46 -61 68 -94
34z"/>
<path d="M1576 3984 c-34 -33 -7 -94 42 -94 43 0 71 67 40 98 -17 17 -64 15
-82 -4z"/>
<path d="M6394 3189 c-2 -3 17 -25 41 -49 l43 -42 16 30 c27 52 22 60 -40 64
-31 1 -58 0 -60 -3z"/>
<path d="M6202 2904 c-12 -8 -26 -24 -32 -34 -9 -17 -3 -24 42 -55 63 -42 81
-44 96 -10 20 43 14 72 -17 94 -35 25 -59 26 -89 5z"/>
<path d="M5742 2312 c2 -4 12 -31 22 -60 11 -29 25 -52 31 -52 17 0 58 47 51
58 -6 11 -90 62 -101 62 -4 0 -5 -4 -3 -8z"/>
<path d="M2827 2107 c-14 -18 -32 -45 -42 -60 -17 -27 -17 -28 1 -42 37 -27
74 -29 100 -4 13 12 26 31 30 41 8 28 -13 74 -41 86 -22 10 -27 8 -48 -21z"/>
</g>
</svg>
